HIERARCHY
ROOT Hips
{
     OFFSET 25.06930 95.55770 6.14111
     CHANNELS 6 Xposition Yposition Zposition Zrotation Xrotation Yrotation
     JOINT Spine
     {
          OFFSET 0.00000 11.89050 0.00000
          CHANNELS 3 Zrotation Xrotation Yrotation
          JOINT Spine1
          {
               OFFSET 0.00000 25.65740 0.12766
               CHANNELS 3 Zrotation Xrotation Yrotation
               JOINT HEad
               {
                    OFFSET 0.00000 8.73416 0.01134
                    CHANNELS 3 Zrotation Xrotation Yrotation
                    End Site
                    {
                         OFFSET -0.29000 12.77420 2.51395
                    }
               }
               JOINT LeftShoulder1
               {
                    OFFSET 8.99000 -0.36225 -0.22000
                    CHANNELS 3 Zrotation Xrotation Yrotation
                    JOINT LeftArm
                    {
                         OFFSET 10.28270 -0.00338 0.32212
                         CHANNELS 3 Zrotation Xrotation Yrotation
                         JOINT LeftForeArm
                         {
                              OFFSET 32.76690 0.09914 -1.42434
                              CHANNELS 3 Zrotation Xrotation Yrotation
                              JOINT LeftHand
                              {
                                   OFFSET 27.56430 0.08536 1.02216
                                   CHANNELS 3 Zrotation Xrotation Yrotation
                                   End Site
                                   {
                                        OFFSET 16.74430 -0.60000 1.50291
                                   }
                              }
                         }
                    }
               }
               JOINT RightShoulder
               {
                    OFFSET -8.99000 -0.36225 -0.22000
                    CHANNELS 3 Zrotation Xrotation Yrotation
                    JOINT RightArm
                    {
                         OFFSET -10.28270 -0.00338 0.32212
                         CHANNELS 3 Zrotation Xrotation Yrotation
                         JOINT RightForeArm
                         {
                              OFFSET -32.89710 0.09914 -1.42434
                              CHANNELS 3 Zrotation Xrotation Yrotation
                              JOINT RightHand
                              {
                                   OFFSET -27.49210 0.08536 1.02216
                                   CHANNELS 3 Zrotation Xrotation Yrotation
                                   End Site
                                   {
                                        OFFSET -16.63120 -0.60000 1.50291
                                   }
                              }
                         }
                    }
               }
          }
     }
     JOINT LeftUpLeg
     {
          OFFSET 8.94580 -8.66707 0.10165
          CHANNELS 3 Zrotation Xrotation Yrotation
          JOINT LeftLeg
          {
               OFFSET -0.00000 -44.42270 1.37270
               CHANNELS 3 Zrotation Xrotation Yrotation
               JOINT LeftFoot
               {
                    OFFSET -0.25355 -42.09240 -1.46059
                    CHANNELS 3 Zrotation Xrotation Yrotation
                    JOINT LeftToes
                    {
                         OFFSET -0.04000 -4.41509 8.49910
                         CHANNELS 3 Zrotation Xrotation Yrotation
                         End Site
                         {
                              OFFSET 0.08000 -0.04745 9.77979
                         }
                    }
               }
          }
     }
     JOINT RightUpLeg
     {
          OFFSET -8.94580 -8.66707 0.10165
          CHANNELS 3 Zrotation Xrotation Yrotation
          JOINT RightLeg
          {
               OFFSET -0.00000 -44.42270 1.37270
               CHANNELS 3 Zrotation Xrotation Yrotation
               JOINT RightFoot
               {
                    OFFSET 0.25355 -42.09240 -1.46059
                    CHANNELS 3 Zrotation Xrotation Yrotation
                    JOINT RightToes
                    {
                         OFFSET 0.04000 -4.41509 8.49910
                         CHANNELS 3 Zrotation Xrotation Yrotation
                         End Site
                         {
                              OFFSET -0.08000 -0.13745 9.77979
                         }
                    }
               }
          }
     }
}
MOTION
Frames: 6
Frame Time: 0.01667
25.06930 95.55770 6.14111 -8.37083 -10.12270 -33.96610 -3.14918 9.91020 -1.91241 -0.51178 19.66560 -4.46476 5.57215 -13.23350 21.21500 -0.00000 -0.00000 0.00000 -126.88600 -66.93680 -110.04300 -34.40300 53.86120 -77.44090 20.05440 6.57497 -15.20140 19.75870 0.49658 -0.16505 80.32400 -5.25843 74.10680 13.75050 33.46240 103.04800 18.71810 11.78190 6.82104 17.07110 -2.47886 -9.60711 -24.15740 12.20080 65.96590 1.63019 8.71811 -0.30013 -0.73497 -34.81770 -68.06340 -22.79870 6.61852 18.24960 28.84020 6.74918 -13.74660 -35.47280 12.22590 6.29804 17.33770 -57.68760 26.40780 
24.70980 95.55340 5.87769 -8.21916 -10.60330 -33.77460 -2.86707 10.03890 -2.07780 -0.56372 19.95360 -4.69939 5.18028 -12.92540 21.59330 -0.00000 -0.00000 0.00000 -126.08200 -67.04650 -109.28300 -34.33990 53.57940 -77.71110 20.23740 6.68286 -14.40430 18.52960 0.47803 -0.16638 81.11600 -5.27284 74.24930 13.57510 33.39990 102.94300 18.86250 11.92510 7.57681 16.95160 -1.96720 -10.30910 -24.14260 11.51220 66.39050 1.93463 9.02222 -0.35041 -0.88427 -35.02080 -68.42430 -22.61820 6.46091 18.19960 28.64370 7.74408 -15.00550 -35.84990 12.34690 6.40961 18.64900 -58.99560 27.80770 
24.32190 95.55930 5.55291 -8.03245 -10.98320 -33.86590 -2.96962 10.05220 -2.04978 -0.78385 19.99200 -4.65751 5.41593 -12.79030 22.03270 -0.00000 -0.00000 0.00000 -123.63200 -67.55120 -107.12400 -33.09330 52.62510 -78.62460 19.96350 6.65482 -14.83300 18.40510 0.51974 0.04403 80.92650 -5.23127 73.98750 12.99620 33.10140 103.07800 18.39580 11.92780 7.88675 16.78330 -1.55541 -10.24430 -23.83520 11.23670 65.91390 1.57748 9.24368 -0.30294 -0.66733 -34.58580 -68.35520 -22.90510 6.59509 19.27100 29.14130 7.10878 -16.72200 -37.14430 12.52540 6.71996 19.78020 -59.99250 29.04580 
23.96580 95.54770 5.23000 -7.71890 -10.85280 -32.89100 -2.89197 9.99412 -2.29574 -0.70056 19.85660 -5.12463 5.61724 -13.13860 22.07250 -0.00000 -0.00000 0.00000 -129.08099 -67.79840 -111.92400 -34.34220 54.89840 -77.52720 20.53780 6.55712 -14.82500 18.48470 0.41035 -0.48900 81.02040 -5.03826 74.02600 14.08920 33.43150 102.53200 18.86110 11.91460 7.51594 16.84500 -2.19274 -11.58790 -23.75460 10.89780 66.86270 1.86108 9.72453 -0.35526 -1.04330 -35.01930 -69.49910 -22.74030 6.94432 18.33950 29.17850 6.63651 -17.62660 -38.58380 12.59140 7.02571 20.93530 -61.12100 30.11200 
23.49350 95.62570 4.88380 -7.74233 -11.17560 -32.81380 -2.91233 10.02410 -2.09310 -0.80984 19.93330 -4.72213 5.22010 -12.42220 21.86330 -0.00000 -0.00000 0.00000 -129.39999 -67.73220 -112.19100 -33.92610 55.49690 -77.88780 20.68790 6.56331 -14.64640 18.69910 0.41943 -0.45786 80.32260 -5.47394 73.93870 14.31870 32.94460 102.30200 18.21570 11.97190 8.27078 16.88720 -1.70323 -11.10760 -23.02970 10.78670 66.42510 0.76336 11.02770 -0.20575 -1.34501 -35.32790 -70.47860 -22.29570 7.34474 18.27860 28.94510 6.77716 -18.61350 -39.91220 11.60840 6.92926 20.75770 -61.01410 29.88630 
23.09600 95.69100 4.46473 -7.62439 -10.86560 -31.90470 -2.58130 9.95192 -2.20875 -0.44077 19.77550 -4.90901 5.00964 -13.06560 21.97590 -0.00000 -0.00000 0.00000 -128.11800 -67.46130 -110.86000 -33.02980 55.10240 -78.57680 20.44370 6.65753 -14.35100 18.49670 0.26150 -1.20599 80.79180 -5.27824 74.13690 14.80860 33.37480 102.38200 18.35590 11.87300 7.58314 17.37620 -2.06041 -11.57480 -23.14890 10.13560 64.46880 1.20284 10.23200 -0.26408 -0.09404 -33.50390 -67.87140 -21.76640 7.37394 17.84480 29.10970 6.41489 -19.83220 -40.39280 11.53450 6.99318 21.40470 -60.95490 31.16100 
